<svg width="90" height="20" viewBox="0 0 90 20" fill="none" xmlns="http://www.w3.org/2000/svg">
<g clip-path="url(#clip0_951_10493)">
<path d="M25.1821 0C23.6033 0 22.0601 0.45993 20.7474 1.32163C19.4348 2.18333 18.4117 3.40809 17.8076 4.84105C17.2034 6.274 17.0453 7.85078 17.3533 9.37199C17.6613 10.8932 18.4215 12.2905 19.5379 13.3873C20.6542 14.484 22.0764 15.2309 23.6248 15.5335C25.1732 15.8361 26.7781 15.6808 28.2367 15.0872C29.6952 14.4937 30.9418 13.4885 31.8189 12.1989C32.696 10.9093 33.1642 9.3931 33.1642 7.84208C33.1642 5.76223 32.3232 3.76757 30.8263 2.29689C29.3293 0.826217 27.299 0 25.1821 0V0ZM25.1821 11.0385C24.5385 11.0378 23.9096 10.8497 23.3749 10.4979C22.8402 10.1461 22.4236 9.64645 22.1779 9.0621C21.9321 8.47776 21.8682 7.83495 21.9943 7.21494C22.1203 6.59493 22.4307 6.02556 22.886 5.57879C23.3414 5.13203 23.9214 4.82794 24.5526 4.70496C25.1839 4.58197 25.8381 4.64562 26.4325 4.88786C27.027 5.1301 27.5349 5.54004 27.8923 6.06588C28.2496 6.59171 28.4402 7.20983 28.4401 7.84208C28.4401 8.26221 28.3558 8.67823 28.192 9.06632C28.0282 9.45442 27.7881 9.80699 27.4855 10.1039C27.1829 10.4007 26.8238 10.6361 26.4285 10.7965C26.0332 10.9568 25.6097 11.0391 25.1821 11.0385Z" fill="#3D3D3D"/>
<path d="M42.3541 4.31142C40.7753 4.31142 39.2321 4.77135 37.9194 5.63305C36.6068 6.49474 35.5837 7.71951 34.9796 9.15246C34.3754 10.5854 34.2173 12.1622 34.5253 13.6834C34.8333 15.2046 35.5935 16.6019 36.7099 17.6987C37.8262 18.7954 39.2484 19.5423 40.7968 19.8449C42.3452 20.1475 43.9501 19.9922 45.4087 19.3986C46.8672 18.8051 48.1138 17.7999 48.9909 16.5103C49.868 15.2207 50.3362 13.7045 50.3362 12.1535C50.3362 10.0736 49.4952 8.07898 47.9982 6.60831C46.5013 5.13763 44.471 4.31142 42.3541 4.31142ZM42.3541 15.3499C41.7103 15.3501 41.081 15.1627 40.5457 14.8114C40.0103 14.4602 39.5931 13.9608 39.3466 13.3766C39.1002 12.7923 39.0357 12.1494 39.1612 11.5291C39.2868 10.9088 39.5968 10.339 40.0519 9.89177C40.5071 9.44457 41.0871 9.14003 41.7185 9.01669C42.3498 8.89335 43.0043 8.95674 43.599 9.19885C44.1937 9.44096 44.7019 9.8509 45.0595 10.3768C45.417 10.9028 45.6077 11.5211 45.6076 12.1535C45.6073 13.0012 45.2645 13.8141 44.6544 14.4135C44.0443 15.0128 43.2169 15.3497 42.3541 15.3499Z" fill="#3D3D3D"/>
<path d="M8.3817 4.32468C7.12574 4.26685 5.87366 4.50166 4.7277 5.00995V0.692338C4.7277 0.508719 4.65345 0.33262 4.5213 0.202781C4.38914 0.0729426 4.2099 0 4.023 0H0.7047C0.517875 0.000233968 0.33877 0.0732517 0.206665 0.20304C0.0745596 0.332828 0.000238146 0.508791 0 0.692338L0 19.3077C0.000238146 19.4912 0.0745596 19.6672 0.206665 19.797C0.33877 19.9267 0.517875 19.9998 0.7047 20H4.023C4.2099 20 4.38914 19.9271 4.5213 19.7972C4.65345 19.6674 4.7277 19.4913 4.7277 19.3077C5.95623 19.852 7.30503 20.0818 8.64837 19.9757C9.9917 19.8697 11.2858 19.4312 12.4101 18.7012C13.5345 17.9711 14.4523 16.9733 15.0782 15.8007C15.704 14.6281 16.0175 13.319 15.9894 11.9952C15.9048 7.89071 12.555 4.50948 8.3817 4.32468ZM8.01 15.3552C7.3663 15.3554 6.73701 15.168 6.20171 14.8168C5.6664 14.4656 5.24914 13.9663 5.00268 13.3821C4.75623 12.7979 4.69165 12.155 4.81712 11.5347C4.94259 10.9144 5.25247 10.3446 5.70757 9.89739C6.16267 9.45015 6.74255 9.14555 7.37387 9.02211C8.00518 8.89867 8.65958 8.96193 9.2543 9.2039C9.84901 9.44588 10.3573 9.85568 10.715 10.3815C11.0726 10.9073 11.2635 11.5255 11.2635 12.1579C11.2635 13.0057 10.9207 13.8189 10.3106 14.4184C9.7005 15.018 8.87296 15.355 8.01 15.3552Z" fill="#3D3D3D"/>
<path d="M67.8834 4.307C66.2131 4.28522 64.593 4.86812 63.3321 5.94456C62.0711 4.86812 60.4511 4.28522 58.7808 4.307C55.0233 4.3521 52.0308 7.42562 52.0308 11.1154V19.305C52.031 19.4887 52.1054 19.6648 52.2377 19.7946C52.37 19.9244 52.5494 19.9974 52.7364 19.9974H56.0664C56.2532 19.9971 56.4323 19.9241 56.5644 19.7943C56.6965 19.6645 56.7708 19.4886 56.7711 19.305V11.073C56.7711 9.958 57.6513 9.00836 58.7853 8.96592C59.0669 8.95558 59.3477 9.00111 59.611 9.09978C59.8743 9.19846 60.1146 9.34825 60.3177 9.54023C60.5207 9.7322 60.6823 9.9624 60.7927 10.2171C60.9032 10.4718 60.9603 10.7457 60.9606 11.0226V19.3077C60.9608 19.4912 61.0351 19.6672 61.1672 19.797C61.2993 19.9268 61.4784 19.9998 61.6653 20H64.9953C65.1821 19.9998 65.3612 19.9268 65.4933 19.797C65.6254 19.6672 65.6997 19.4912 65.7 19.3077V11.073C65.7 9.958 66.5802 9.00836 67.7142 8.96592C67.9958 8.95558 68.2766 9.00111 68.5399 9.09978C68.8032 9.19846 69.0435 9.34825 69.2465 9.54023C69.4496 9.7322 69.6112 9.9624 69.7216 10.2171C69.8321 10.4718 69.8892 10.7457 69.8895 11.0226V19.3077C69.8897 19.4912 69.964 19.6672 70.0961 19.797C70.2282 19.9268 70.4073 19.9998 70.5942 20H73.9242C74.1111 20 74.2905 19.9271 74.4228 19.7973C74.5551 19.6675 74.6295 19.4914 74.6298 19.3077V11.1181C74.6334 7.42739 71.64 4.3521 67.8834 4.307Z" fill="#3D3D3D"/>
<path d="M83.1123 -1.26832e-06C79.3431 0.0274093 76.3281 3.09474 76.3281 6.80048V9.3028V13.9484V19.3077C76.3284 19.4914 76.4028 19.6675 76.5351 19.7973C76.6674 19.9271 76.8467 20 77.0337 20H80.3637C80.5505 19.9998 80.7297 19.9267 80.8618 19.797C80.9939 19.6672 81.0682 19.4912 81.0684 19.3077V13.9484H84.5532C84.74 13.9482 84.9192 13.8752 85.0513 13.7454C85.1834 13.6156 85.2577 13.4397 85.2579 13.2561V9.99602C85.2579 9.81232 85.1837 9.63613 85.0516 9.50615C84.9194 9.37617 84.7402 9.30303 84.5532 9.3028H81.0693V6.76688C81.0693 5.65188 81.9495 4.70136 83.0835 4.6598C83.3655 4.64932 83.6466 4.69488 83.9102 4.79372C84.1738 4.89257 84.4144 5.04268 84.6175 5.23505C84.8206 5.42743 84.9821 5.65811 85.0923 5.91327C85.2025 6.16843 85.2591 6.44283 85.2588 6.72001V7.15328C85.2588 7.33698 85.333 7.51317 85.4652 7.64315C85.5973 7.77313 85.7765 7.84626 85.9635 7.8465H89.2935C89.4805 7.84626 89.6597 7.77313 89.7919 7.64315C89.924 7.51317 89.9982 7.33698 89.9982 7.15328V6.72001C89.9982 5.83372 89.8198 4.95618 89.4732 4.13792C89.1266 3.31965 88.6187 2.57683 87.9786 1.95223C87.3386 1.32763 86.5791 0.833577 85.744 0.498528C84.9088 0.16348 84.0144 -0.00594875 83.1123 -1.26832e-06Z" fill="#3D3D3D"/>
</g>
<defs>
<clipPath id="clip0_951_10493">
<rect width="90" height="20" fill="white"/>
</clipPath>
</defs>
</svg>
